HIERARCHY
ROOT Hips
{
	OFFSET -3.958830 18.904000 13.208200
	CHANNELS 6 Xposition Yposition Zposition Zrotation Yrotation Xrotation 
	JOINT LHipJoint
	{
		OFFSET 0.000000 0.000000 0.000000
		CHANNELS 3 Zrotation Yrotation Xrotation
		JOINT LeftUpLeg
		{
			OFFSET 1.800000 -1.400000 0.085000
			CHANNELS 3 Zrotation Yrotation Xrotation
			JOINT LeftLeg
			{
				OFFSET 2.215000 -6.000000 0.000000
				CHANNELS 3 Zrotation Yrotation Xrotation
				JOINT LeftFoot
				{
					OFFSET 2.500000 -6.900000 0.000000
					CHANNELS 3 Zrotation Yrotation Xrotation
					JOINT LeftToeBase
					{
						OFFSET 0.200000 -0.500000 1.950000
						CHANNELS 3 Zrotation Yrotation Xrotation
						End Site
						{
							OFFSET 0.000000 0.000000 0.000000
						}
					}
				}
			}
		}
	}
	JOINT RHipJoint
	{
		OFFSET 0.000000 0.000000 0.000000
		CHANNELS 3 Zrotation Yrotation Xrotation
		JOINT RightUpLeg
		{
			OFFSET -1.800000 -1.400000 0.085000
			CHANNELS 3 Zrotation Yrotation Xrotation
			JOINT RightLeg
			{
				OFFSET -2.215000 -6.000000 0.000000
				CHANNELS 3 Zrotation Yrotation Xrotation
				JOINT RightFoot
				{
					OFFSET -2.500000 -6.900000 0.000000
					CHANNELS 3 Zrotation Yrotation Xrotation
					JOINT RightToeBase
					{
						OFFSET -0.200000 -0.500000 1.950000
						CHANNELS 3 Zrotation Yrotation Xrotation
						End Site
						{
							OFFSET 0.000000 0.000000 0.000000
						}
					}
				}
			}
		}
	}
	JOINT LowerBack
	{
		OFFSET 0.000000 0.000000 0.000000
		CHANNELS 3 Zrotation Yrotation Xrotation
		JOINT Spine
		{
			OFFSET -0.087000 1.940000 -0.288900
			CHANNELS 3 Zrotation Yrotation Xrotation
			JOINT Spine1
			{
				OFFSET 0.000000 1.950000 0.060000
				CHANNELS 3 Zrotation Yrotation Xrotation
				JOINT Neck
				{
					OFFSET 0.000000 0.000000 0.000000
					CHANNELS 3 Zrotation Yrotation Xrotation
					JOINT Neck1
					{
						OFFSET 0.000000 1.600000 0.340000
						CHANNELS 3 Zrotation Yrotation Xrotation
						JOINT Head
						{
							OFFSET 0.000000 1.667000 -0.240000
							CHANNELS 3 Zrotation Yrotation Xrotation
							End Site
							{
								OFFSET 0.000000 0.000000 0.000000
							}
						}
					}
				}
				JOINT LeftShoulder
				{
					OFFSET 0.000000 0.000000 0.000000
					CHANNELS 3 Zrotation Yrotation Xrotation
					JOINT LeftArm
					{
						OFFSET 2.700000 1.550000 -0.730000
						CHANNELS 3 Zrotation Yrotation Xrotation
						JOINT LeftForeArm
						{
							OFFSET 5.450000 0.000000 0.000000
							CHANNELS 3 Zrotation Yrotation Xrotation
							JOINT LeftHand
							{
								OFFSET 3.450000 0.000000 0.000000
								CHANNELS 3 Zrotation Yrotation Xrotation
								JOINT LeftHandIndex1
								{
									OFFSET 0.750000 0.000000 0.000000
									CHANNELS 3 Zrotation Yrotation Xrotation
									End Site
									{
										OFFSET 0.000000 0.000000 0.000000
									}
								}
							}
						}
					}
				}
				JOINT RightShoulder
				{
					OFFSET 0.000000 0.000000 0.000000
					CHANNELS 3 Zrotation Yrotation Xrotation
					JOINT RightArm
					{
						OFFSET -2.700000 1.550000 -0.730000
						CHANNELS 3 Zrotation Yrotation Xrotation
						JOINT RightForeArm
						{
							OFFSET -5.450000 0.000000 0.000000
							CHANNELS 3 Zrotation Yrotation Xrotation
							JOINT RightHand
							{
								OFFSET -3.450000 0.000000 0.000000
								CHANNELS 3 Zrotation Yrotation Xrotation
								JOINT RightHandIndex1
								{
									OFFSET -0.750000 0.000000 0.000000
									CHANNELS 3 Zrotation Yrotation Xrotation
									End Site
									{
										OFFSET 0.000000 0.000000 0.000000
									}
								}
							}
						}
					}
				}
			}
		}
	}
}
MOTION
Frames: 6
Frame Time: 0.016667
0.678180 16.888400 -1.201030 0.024436 5.770478 -6.152713 -15.672066 14.057738 3.658824 -1.736734 1.999607 3.566957 -8.541712 5.539646 4.149287 -0.439969 5.275361 3.289834 0.528420 -0.119750 0.404650 17.727133 -9.840907 3.143321 -4.040773 2.275908 -26.049328 4.319521 -2.829335 3.597434 -0.201387 -1.796666 3.960984 -0.059580 0.530660 0.507840 -2.216645 -4.235492 -8.459624 1.144951 -0.166474 24.208079 1.524635 0.359132 -3.083039 3.260214 -0.626684 -11.116904 -5.026453 -0.389161 39.304104 -4.755460 -0.732230 -13.674310 -19.944008 -9.068466 2.275524 11.643958 4.703648 0.801613 10.504301 -6.939680 -1.245925 -3.935707 2.501296 1.101010 0.232750 0.059360 0.414390 14.535693 10.673203 8.914027 -11.464254 -17.722684 0.310161 -9.998350 8.182609 0.202212 1.874520 -1.335932 -0.392310 0.383140 -0.032420 -0.318290 
0.678120 16.888210 -1.200530 0.030947 5.776978 -6.145609 -15.672825 14.056948 3.658739 -1.744271 2.001314 3.570198 -8.534171 5.536816 4.140154 -0.441148 5.275629 3.290133 0.528540 -0.120070 0.405080 17.726726 -9.840222 3.143112 -4.048532 2.275301 -26.057099 4.324067 -2.829644 3.596328 -0.201408 -1.797039 3.960509 -0.059190 0.531080 0.507770 -2.215020 -4.235283 -8.458907 1.125733 -0.161662 24.181771 1.537310 0.355857 -3.063262 3.258702 -0.620240 -11.110377 -5.011189 -0.393455 39.290854 -4.765460 -0.728670 -13.675890 -19.946914 -9.066402 2.275151 11.629690 4.696200 0.801004 10.513749 -6.939247 -1.247669 -3.936229 2.500990 1.101420 0.233030 0.058970 0.414420 14.542174 10.665012 8.907349 -11.461467 -17.707924 0.307617 -10.000076 8.190885 0.200981 1.873821 -1.336165 -0.393120 0.383720 -0.032220 -0.318800 
0.678130 16.888000 -1.199690 0.033594 5.775915 -6.146129 -15.673568 14.056576 3.659271 -1.744991 2.006207 3.589962 -8.525532 5.533730 4.118266 -0.442630 5.277684 3.290029 0.527610 -0.121320 0.404790 17.726397 -9.839512 3.142558 -4.045128 2.275884 -26.060349 4.313665 -2.828578 3.597774 -0.200774 -1.796665 3.960470 -0.058960 0.532300 0.507090 -2.213412 -4.235944 -8.458620 1.112196 -0.159721 24.163761 1.548370 0.352566 -3.054079 3.259284 -0.621037 -11.105833 -5.009547 -0.388237 39.286983 -4.765590 -0.725830 -13.672830 -19.942225 -9.053593 2.275001 11.587558 4.698409 0.800905 10.534755 -6.959276 -1.249735 -3.936803 2.499453 1.102270 0.233500 0.058180 0.414100 14.537327 10.655091 8.899388 -11.448107 -17.679625 0.301498 -9.988716 8.224096 0.200022 1.872908 -1.335379 -0.395040 0.385150 -0.031410 -0.319270 
0.678390 16.887290 -1.198440 0.026214 5.778665 -6.136444 -15.673763 14.054332 3.659708 -1.737264 2.009591 3.610420 -8.526348 5.529209 4.076082 -0.443757 5.280251 3.290069 0.527330 -0.122630 0.405910 17.726865 -9.838312 3.142907 -4.033005 2.278838 -26.063182 4.303067 -2.825294 3.578017 -0.200348 -1.796301 3.960337 -0.058790 0.533250 0.507000 -2.213713 -4.233715 -8.459149 1.118238 -0.171361 24.125731 1.544237 0.340716 -3.037557 3.262860 -0.611098 -11.103255 -4.985233 -0.390124 39.276524 -4.787050 -0.714020 -13.655360 -19.933207 -9.042474 2.277437 11.559242 4.722954 0.806368 10.527237 -6.985273 -1.250474 -3.937078 2.498633 1.103090 0.234220 0.057580 0.413850 14.518729 10.635035 8.891950 -11.409108 -17.630120 0.289153 -9.989057 8.239895 0.197971 1.872734 -1.334813 -0.396720 0.385890 -0.031370 -0.320040 
0.678940 16.886820 -1.197210 0.018424 5.775627 -6.131546 -15.673287 14.052136 3.660656 -1.735683 2.016276 3.638086 -8.517547 5.522944 4.027813 -0.444580 5.281520 3.289875 0.526020 -0.124210 0.405660 17.727831 -9.837864 3.143033 -4.024786 2.279298 -26.061148 4.292392 -2.822649 3.558724 -0.199888 -1.795791 3.960245 -0.058980 0.533780 0.506290 -2.215688 -4.230597 -8.460161 1.134169 -0.190831 24.099643 1.523380 0.325458 -3.031256 3.268968 -0.602178 -11.106791 -4.964306 -0.382274 39.279674 -4.810400 -0.691510 -13.644490 -19.918311 -9.027137 2.279784 11.529267 4.769370 0.815367 10.499651 -7.039915 -1.249096 -3.936848 2.498445 1.103480 0.234510 0.056970 0.413200 14.487575 10.609964 8.890703 -11.331774 -17.562521 0.267879 -10.015933 8.241601 0.196512 1.873237 -1.332838 -0.398200 0.386790 -0.030310 -0.320690 
0.679570 16.886230 -1.195840 0.014107 5.767749 -6.116787 -15.673018 14.049238 3.661362 -1.741994 2.023739 3.660414 -8.505281 5.515552 3.977365 -0.445239 5.281646 3.290086 0.523620 -0.126360 0.404770 17.728764 -9.837188 3.143286 -4.020908 2.278461 -26.060868 4.279762 -2.818773 3.527131 -0.198849 -1.795211 3.960465 -0.059470 0.534690 0.505220 -2.217189 -4.226645 -8.460981 1.141663 -0.207956 24.055311 1.507547 0.308261 -3.014205 3.274708 -0.592687 -11.111830 -4.939615 -0.371919 39.274597 -4.841030 -0.660940 -13.624740 -19.899322 -9.012961 2.288838 11.482807 4.832033 0.824925 10.477301 -7.100594 -1.247106 -3.937101 2.497744 1.103170 0.235230 0.056010 0.412060 14.453467 10.586840 8.886421 -11.254917 -17.494756 0.247988 -10.014982 8.280892 0.195424 1.873366 -1.330550 -0.399850 0.387990 -0.028790 -0.321150 
